<svg width="1284" height="787" viewBox="0 0 1284 787" fill="none" xmlns="http://www.w3.org/2000/svg">
<path opacity="0.2" fill-rule="evenodd" clip-rule="evenodd" d="M0 474.44V194.195C61.4035 110.35 150.963 72.6567 208.389 109.806C270.569 150.029 271.531 262.763 210.539 361.604C153.481 454.07 62.4169 501.621 0 474.44Z" fill="#AD9CFF"/>
<path opacity="0.2" fill-rule="evenodd" clip-rule="evenodd" d="M0 756.679V669.278C16.9865 649.929 39.0527 641.877 53.5721 651.269C70.9285 662.497 70.9285 694.4 53.5721 722.527C39.0527 746.057 16.9865 759.49 0 756.679Z" fill="#AD9CFF"/>
<ellipse opacity="0.3" rx="37.634" ry="60.033" transform="matrix(-0.771287 -0.636488 0.619287 -0.785165 986.67 71.0981)" fill="#AD9CFF"/>
<ellipse rx="52.0861" ry="83.4112" transform="matrix(-0.618295 0.785946 -0.78673 -0.617297 704.276 313.477)" fill="#C9DFFF"/>
<path fill-rule="evenodd" clip-rule="evenodd" d="M774.772 787H674.695C673.816 786.344 672.942 785.675 672.072 784.993C635.829 756.556 620.868 715.175 638.654 692.566C656.44 669.957 700.239 674.682 736.481 703.119C768.533 728.268 783.94 763.541 774.772 787Z" fill="#C9DFFF"/>
<path opacity="0.3" fill-rule="evenodd" clip-rule="evenodd" d="M1284 140.971V234.33C1265.94 234.071 1243.73 225.354 1223.84 209.185C1190.54 182.102 1176.4 144.371 1192.26 124.909C1208.12 105.448 1247.98 111.625 1281.29 138.708C1282.21 139.454 1283.11 140.209 1284 140.971Z" fill="#4B95FF"/>
</svg>
