<svg width="244" height="244" viewBox="0 0 244 244" fill="none" xmlns="http://www.w3.org/2000/svg">
<circle cx="122.062" cy="122.006" r="119.274" transform="rotate(-0.992133 122.062 122.006)" fill="black"/>
<path d="M88.2148 58.3956L121.016 24.4382L162.407 64.4196L129.922 98.0492L127.022 95.2485L156.706 64.5183L121.115 30.1385L91.1143 61.1963L88.2148 58.3956Z" fill="#1A314D"/>
<path d="M88.2148 58.3956L121.016 24.4382L162.407 64.4196L129.922 98.0492L127.022 95.2485L156.706 64.5183L121.115 30.1385L91.1143 61.1963L88.2148 58.3956Z" fill="url(#paint0_radial)"/>
<path d="M89.0679 89.0785L122.786 121.648L145.148 98.498L157.363 110.297L122.597 146.289L63.6056 89.3061L86.064 66.0561L83.1645 63.2553L57.9053 89.4048L122.695 151.989L163.064 110.198L145.05 92.7975L122.687 115.948L94.7687 88.9798L121.84 60.9544L129.426 68.2819L132.227 65.3825L121.741 55.2539L89.0679 89.0785Z" fill="#1A314D"/>
<path d="M89.0679 89.0785L122.786 121.648L145.148 98.498L157.363 110.297L122.597 146.289L63.6056 89.3061L86.064 66.0561L83.1645 63.2553L57.9053 89.4048L122.695 151.989L163.064 110.198L145.05 92.7975L122.687 115.948L94.7687 88.9798L121.84 60.9544L129.426 68.2819L132.227 65.3825L121.741 55.2539L89.0679 89.0785Z" fill="url(#paint1_radial)"/>
<path fill-rule="evenodd" clip-rule="evenodd" d="M149.865 87.8123L168.357 105.674L186.219 87.1827L167.727 69.3206L149.865 87.8123ZM168.258 99.9741L155.566 87.7136L167.826 75.0209L180.519 87.2814L168.258 99.9741Z" fill="#1A314D"/>
<path fill-rule="evenodd" clip-rule="evenodd" d="M149.865 87.8123L168.357 105.674L186.219 87.1827L167.727 69.3206L149.865 87.8123ZM168.258 99.9741L155.566 87.7136L167.826 75.0209L180.519 87.2814L168.258 99.9741Z" fill="url(#paint2_radial)"/>
<path d="M59.6071 184.607C57.9422 184.636 56.3451 184.427 54.8159 183.981C53.2867 183.534 52.0841 182.949 51.208 182.224L52.8493 179.05C53.7661 179.753 54.8449 180.31 56.0856 180.721C57.3465 181.11 58.6245 181.293 59.9194 181.271C61.502 181.244 62.7512 180.955 63.6669 180.404C64.6028 179.833 65.0625 179.074 65.0462 178.129C65.0369 177.595 64.834 177.156 64.4374 176.813C64.061 176.45 63.5831 176.16 63.0037 175.944C62.4448 175.727 61.6593 175.484 60.6472 175.214C59.2424 174.827 58.1051 174.456 57.2354 174.101C56.3654 173.725 55.6155 173.162 54.9857 172.413C54.3559 171.663 54.0305 170.682 54.0095 169.469C53.9853 168.071 54.3546 166.841 55.1175 165.78C55.901 164.718 56.9969 163.886 58.4051 163.286C59.8134 162.686 61.4425 162.37 63.2924 162.338C64.69 162.314 66.0186 162.455 67.2781 162.763C68.5373 163.049 69.624 163.472 70.5384 164.032L69.021 167.235C68.2101 166.715 67.2986 166.319 66.2865 166.049C65.2743 165.779 64.2236 165.653 63.1342 165.672C61.531 165.699 60.2618 166.02 59.3266 166.632C58.4116 167.224 57.9625 168.002 57.9792 168.968C57.9889 169.523 58.1921 169.982 58.5891 170.346C58.986 170.709 59.4639 170.999 60.0228 171.215C60.5813 171.411 61.3978 171.664 62.4723 171.975C63.8357 172.342 64.9522 172.703 65.8219 173.058C66.6916 173.413 67.4307 173.945 68.0392 174.654C68.6683 175.363 68.9928 176.292 69.0127 177.443C69.0373 178.862 68.6578 180.102 67.8744 181.164C67.1115 182.226 66.0053 183.057 64.5559 183.658C63.1271 184.258 61.4775 184.575 59.6071 184.607ZM80.0973 169.449L79.3657 173.502L87.7518 173.356L87.1875 176.389L78.8014 176.534L78.0128 180.865L87.8172 180.695L87.2545 183.82L73.5654 184.057L76.7748 166.361L90.1247 166.129L89.5625 169.285L80.0973 169.449ZM99.0042 169.152L93.2079 169.253L93.7695 166.066L109.247 165.798L108.685 168.985L102.889 169.085L100.241 183.595L96.3565 183.662L99.0042 169.152ZM114.844 161.754L123.569 161.603C125.728 161.565 127.605 161.903 129.2 162.615C130.795 163.307 132.015 164.314 132.861 165.636C133.727 166.958 134.175 168.523 134.206 170.331C134.25 172.86 133.723 175.089 132.626 177.02C131.549 178.951 130.002 180.458 127.986 181.542C125.969 182.625 123.635 183.19 120.983 183.236L110.902 183.41L114.844 161.754ZM121.048 179.842C122.939 179.81 124.577 179.391 125.961 178.585C127.345 177.78 128.395 176.693 129.112 175.323C129.848 173.933 130.202 172.375 130.172 170.648C130.14 168.839 129.53 167.441 128.341 166.455C127.152 165.447 125.437 164.963 123.197 165.002L118.233 165.088L115.529 179.938L121.048 179.842ZM154.695 182.652L150.779 182.72L149.819 178.912L141.371 179.059L139.001 182.924L134.839 182.996L146.126 165.16L149.949 165.093L154.695 182.652ZM149.181 175.932L147.421 168.684L143.015 176.039L149.181 175.932ZM163.898 168.028L158.102 168.129L158.663 164.943L174.141 164.675L173.579 167.861L167.783 167.961L165.135 182.471L161.25 182.539L163.898 168.028ZM191.484 182.015L187.568 182.083L186.608 178.275L178.16 178.421L175.791 182.287L171.628 182.359L182.916 164.523L186.739 164.456L191.484 182.015ZM185.97 175.295L184.21 168.047L179.804 175.401L185.97 175.295Z" fill="#BEBEBE"/>
<path d="M55.225 203.27C54.557 203.281 53.9181 203.195 53.3084 203.01C52.7087 202.815 52.2572 202.565 51.9538 202.262L52.4317 201.36C52.7453 201.663 53.1658 201.902 53.6931 202.078C54.2205 202.254 54.7668 202.337 55.332 202.327C56.072 202.314 56.6605 202.165 57.0976 201.88C57.5347 201.595 57.7489 201.201 57.7402 200.697C57.7356 200.43 57.6444 200.21 57.4666 200.039C57.2889 199.867 57.0707 199.732 56.812 199.634C56.5531 199.525 56.1913 199.408 55.7265 199.282C55.1687 199.128 54.7189 198.981 54.3773 198.843C54.0357 198.705 53.7391 198.5 53.4877 198.226C53.2463 197.943 53.1217 197.575 53.1139 197.123C53.0993 196.28 53.4167 195.611 54.066 195.117C54.7255 194.612 55.5999 194.35 56.6893 194.331C57.234 194.322 57.749 194.38 58.2343 194.505C58.7298 194.62 59.1491 194.792 59.4924 195.023L59.061 195.94C58.4056 195.489 57.6 195.272 56.6442 195.288C55.9145 195.301 55.321 195.46 54.8637 195.766C54.4165 196.062 54.1973 196.461 54.206 196.965C54.2106 197.232 54.3018 197.452 54.4795 197.623C54.6573 197.795 54.8807 197.935 55.1499 198.043C55.4189 198.142 55.7805 198.248 56.2348 198.364C56.7927 198.519 57.2424 198.665 57.584 198.803C57.9359 198.941 58.2325 199.147 58.4737 199.42C58.7251 199.693 58.8548 200.056 58.8626 200.508C58.8772 201.351 58.5495 202.02 57.8796 202.514C57.2095 202.999 56.3246 203.251 55.225 203.27ZM74.5013 202.936C73.638 202.951 72.8955 202.815 72.2737 202.527C71.6517 202.23 71.1716 201.811 70.8333 201.272C70.5051 200.723 70.3347 200.083 70.322 199.354C70.3053 198.387 70.5109 197.5 70.939 196.691C71.3773 195.881 71.9932 195.238 72.7868 194.762C73.5906 194.275 74.5165 194.023 75.5648 194.004C76.4281 193.989 77.1707 194.131 77.7927 194.428C78.4247 194.716 78.9049 195.134 79.2331 195.683C79.5715 196.233 79.7471 196.872 79.7597 197.602C79.7763 198.558 79.5654 199.44 79.1271 200.25C78.6991 201.059 78.0832 201.707 77.2795 202.194C76.4756 202.67 75.5495 202.918 74.5013 202.936ZM74.5926 201.978C75.4148 201.964 76.136 201.761 76.7564 201.37C77.3767 200.979 77.8508 200.457 78.1787 199.803C78.5067 199.15 78.664 198.443 78.6509 197.683C78.6363 196.84 78.3524 196.177 77.7991 195.693C77.256 195.198 76.486 194.96 75.4891 194.977C74.667 194.991 73.9457 195.194 73.3254 195.585C72.7051 195.976 72.231 196.499 71.903 197.152C71.5751 197.805 71.4178 198.517 71.4311 199.288C71.4456 200.121 71.7243 200.784 72.2675 201.278C72.8207 201.762 73.5957 201.995 74.5926 201.978ZM92.5878 193.818L93.6823 193.799L92.2602 201.61L97.1161 201.526L96.9471 202.455L90.9813 202.558L92.5878 193.818ZM112.03 202.286C111.002 202.304 110.196 202.066 109.612 201.572C109.038 201.068 108.743 200.364 108.727 199.459C108.723 199.203 108.753 198.878 108.818 198.486L109.719 193.521L110.829 193.502L109.913 198.452C109.856 198.761 109.83 199.039 109.835 199.286C109.846 199.954 110.045 200.46 110.431 200.802C110.828 201.145 111.391 201.31 112.121 201.297C112.953 201.283 113.612 201.04 114.097 200.569C114.583 200.098 114.914 199.368 115.093 198.378L116.009 193.412L117.088 193.393L116.173 198.421C115.723 200.957 114.342 202.246 112.03 202.286ZM131.298 194.072L128.23 194.126L128.399 193.197L135.645 193.072L135.476 194L132.393 194.053L130.97 201.865L129.876 201.884L131.298 194.072ZM147.03 192.875L148.124 192.856L146.533 201.596L145.423 201.615L147.03 192.875ZM163.542 201.394C162.678 201.409 161.936 201.273 161.314 200.985C160.692 200.688 160.212 200.269 159.874 199.73C159.545 199.181 159.375 198.541 159.362 197.812C159.346 196.846 159.551 195.958 159.979 195.149C160.418 194.339 161.034 193.696 161.827 193.22C162.631 192.733 163.557 192.481 164.605 192.462C165.468 192.448 166.211 192.589 166.833 192.886C167.465 193.174 167.945 193.592 168.273 194.141C168.612 194.691 168.787 195.33 168.8 196.06C168.817 197.016 168.606 197.898 168.167 198.708C167.739 199.517 167.124 200.165 166.32 200.652C165.516 201.128 164.59 201.376 163.542 201.394ZM163.633 200.436C164.455 200.422 165.176 200.219 165.797 199.828C166.417 199.437 166.891 198.915 167.219 198.261C167.547 197.608 167.704 196.901 167.691 196.141C167.677 195.298 167.393 194.635 166.84 194.151C166.296 193.657 165.526 193.418 164.53 193.435C163.707 193.449 162.986 193.652 162.366 194.043C161.745 194.434 161.271 194.957 160.943 195.61C160.615 196.263 160.458 196.975 160.472 197.746C160.486 198.579 160.765 199.242 161.308 199.736C161.861 200.22 162.636 200.453 163.633 200.436ZM189.12 192.146L187.529 200.886L186.604 200.902L182.384 194.067L181.132 200.997L180.022 201.016L181.628 192.276L182.538 192.26L186.758 199.095L188.026 192.165L189.12 192.146Z" fill="#BEBEBE"/>
<defs>
<radialGradient id="paint0_radial" cx="0" cy="0" r="1" gradientUnits="userSpaceOnUse" gradientTransform="translate(167.6 87.4213) rotate(122.933) scale(81.6076 82.1018)">
<stop offset="0.151042" stop-color="#FCC90B"/>
<stop offset="0.635417" stop-color="#FA0516"/>
<stop offset="0.770833" stop-color="#3F4FD3"/>
<stop offset="0.890625" stop-color="#018448"/>
<stop offset="0.942708" stop-color="#1F6CF1"/>
</radialGradient>
<radialGradient id="paint1_radial" cx="0" cy="0" r="1" gradientUnits="userSpaceOnUse" gradientTransform="translate(167.6 87.4213) rotate(122.933) scale(81.6076 82.1018)">
<stop offset="0.151042" stop-color="#FCC90B"/>
<stop offset="0.635417" stop-color="#FA0516"/>
<stop offset="0.770833" stop-color="#3F4FD3"/>
<stop offset="0.890625" stop-color="#018448"/>
<stop offset="0.942708" stop-color="#1F6CF1"/>
</radialGradient>
<radialGradient id="paint2_radial" cx="0" cy="0" r="1" gradientUnits="userSpaceOnUse" gradientTransform="translate(167.6 87.4213) rotate(122.933) scale(81.6076 82.1018)">
<stop offset="0.151042" stop-color="#FCC90B"/>
<stop offset="0.635417" stop-color="#FA0516"/>
<stop offset="0.770833" stop-color="#3F4FD3"/>
<stop offset="0.890625" stop-color="#018448"/>
<stop offset="0.942708" stop-color="#1F6CF1"/>
</radialGradient>
</defs>
</svg>
