<svg width="244" height="244" viewBox="0 0 244 244" fill="none" xmlns="http://www.w3.org/2000/svg">
<circle cx="121.913" cy="122.006" r="119.274" transform="rotate(-0.992133 121.913 122.006)" fill="white"/>
<path d="M88.0654 58.3956L120.867 24.4382L162.257 64.4196L129.772 98.0492L126.873 95.2485L156.557 64.5183L120.965 30.1385L90.9649 61.1963L88.0654 58.3956Z" fill="#1A314D"/>
<path d="M88.0654 58.3956L120.867 24.4382L162.257 64.4196L129.772 98.0492L126.873 95.2485L156.557 64.5183L120.965 30.1385L90.9649 61.1963L88.0654 58.3956Z" fill="url(#paint0_radial)"/>
<path d="M88.9185 89.0785L122.636 121.648L144.999 98.498L157.214 110.297L122.447 146.289L63.4562 89.3061L85.9146 66.0561L83.0151 63.2553L57.7559 89.4048L122.546 151.989L162.914 110.198L144.9 92.7975L122.538 115.948L94.6193 88.9798L121.69 60.9544L129.276 68.2819L132.077 65.3825L121.592 55.2539L88.9185 89.0785Z" fill="#1A314D"/>
<path d="M88.9185 89.0785L122.636 121.648L144.999 98.498L157.214 110.297L122.447 146.289L63.4562 89.3061L85.9146 66.0561L83.0151 63.2553L57.7559 89.4048L122.546 151.989L162.914 110.198L144.9 92.7975L122.538 115.948L94.6193 88.9798L121.69 60.9544L129.276 68.2819L132.077 65.3825L121.592 55.2539L88.9185 89.0785Z" fill="url(#paint1_radial)"/>
<path fill-rule="evenodd" clip-rule="evenodd" d="M149.716 87.8123L168.208 105.674L186.07 87.1827L167.578 69.3206L149.716 87.8123ZM168.109 99.9741L155.416 87.7136L167.677 75.0209L180.369 87.2814L168.109 99.9741Z" fill="#1A314D"/>
<path fill-rule="evenodd" clip-rule="evenodd" d="M149.716 87.8123L168.208 105.674L186.07 87.1827L167.578 69.3206L149.716 87.8123ZM168.109 99.9741L155.416 87.7136L167.677 75.0209L180.369 87.2814L168.109 99.9741Z" fill="url(#paint2_radial)"/>
<path d="M59.4576 184.607C57.7928 184.636 56.1957 184.427 54.6665 183.981C53.1373 183.534 51.9347 182.949 51.0586 182.224L52.6998 179.05C53.6167 179.753 54.6955 180.31 55.9362 180.721C57.1971 181.11 58.475 181.293 59.77 181.271C61.3526 181.244 62.6018 180.955 63.5175 180.404C64.4534 179.833 64.9131 179.074 64.8967 178.129C64.8875 177.595 64.6846 177.156 64.288 176.813C63.9116 176.45 63.4337 176.16 62.8543 175.944C62.2954 175.727 61.5099 175.484 60.4977 175.214C59.0929 174.827 57.9557 174.456 57.086 174.101C56.216 173.725 55.4661 173.162 54.8363 172.413C54.2065 171.663 53.8811 170.682 53.8601 169.469C53.8359 168.071 54.2052 166.841 54.9681 165.78C55.7516 164.718 56.8474 163.886 58.2557 163.286C59.664 162.686 61.2931 162.37 63.1429 162.338C64.5406 162.314 65.8692 162.455 67.1287 162.763C68.3879 163.049 69.4746 163.472 70.389 164.032L68.8716 167.235C68.0607 166.715 67.1492 166.319 66.1371 166.049C65.1249 165.779 64.0742 165.653 62.9848 165.672C61.3816 165.699 60.1124 166.02 59.1772 166.632C58.2622 167.224 57.8131 168.002 57.8298 168.968C57.8394 169.523 58.0427 169.982 58.4396 170.346C58.8366 170.709 59.3145 170.999 59.8734 171.215C60.4319 171.411 61.2484 171.664 62.3229 171.975C63.6863 172.342 64.8028 172.703 65.6725 173.058C66.5421 173.413 67.2813 173.945 67.8898 174.654C68.5189 175.363 68.8434 176.292 68.8633 177.443C68.8879 178.862 68.5084 180.102 67.725 181.164C66.9621 182.226 65.8559 183.057 64.4065 183.658C62.9777 184.258 61.3281 184.575 59.4576 184.607ZM79.9479 169.449L79.2163 173.502L87.6024 173.356L87.0381 176.389L78.652 176.534L77.8634 180.865L87.6678 180.695L87.1051 183.82L73.416 184.057L76.6253 166.361L89.9753 166.129L89.4131 169.285L79.9479 169.449ZM98.8548 169.152L93.0585 169.253L93.6201 166.066L109.097 165.798L108.536 168.985L102.74 169.085L100.092 183.595L96.2071 183.662L98.8548 169.152ZM114.695 161.754L123.42 161.603C125.578 161.565 127.455 161.903 129.051 162.615C130.646 163.307 131.866 164.314 132.711 165.636C133.577 166.958 134.026 168.523 134.057 170.331C134.101 172.86 133.574 175.089 132.477 177.02C131.4 178.951 129.853 180.458 127.836 181.542C125.82 182.625 123.486 183.19 120.834 183.236L110.752 183.41L114.695 161.754ZM120.899 179.842C122.79 179.81 124.427 179.391 125.811 178.585C127.195 177.78 128.246 176.693 128.962 175.323C129.699 173.933 130.052 172.375 130.022 170.648C129.991 168.839 129.381 167.441 128.192 166.455C127.002 165.447 125.288 164.963 123.047 165.002L118.083 165.088L115.38 179.938L120.899 179.842ZM154.545 182.652L150.63 182.72L149.669 178.912L141.221 179.059L138.852 182.924L134.69 182.996L145.977 165.16L149.8 165.093L154.545 182.652ZM149.032 175.932L147.272 168.684L142.865 176.039L149.032 175.932ZM163.749 168.028L157.952 168.129L158.514 164.943L173.991 164.675L173.43 167.861L167.633 167.961L164.986 182.471L161.101 182.539L163.749 168.028ZM191.334 182.015L187.419 182.083L186.458 178.275L178.011 178.421L175.641 182.287L171.479 182.359L182.766 164.523L186.589 164.456L191.334 182.015ZM185.821 175.295L184.061 168.047L179.655 175.401L185.821 175.295Z" fill="black"/>
<path d="M55.0756 203.27C54.4075 203.281 53.7687 203.195 53.1589 203.01C52.5593 202.815 52.1078 202.565 51.8044 202.262L52.2822 201.36C52.5959 201.663 53.0164 201.902 53.5437 202.078C54.0711 202.254 54.6174 202.337 55.1826 202.327C55.9225 202.314 56.5111 202.165 56.9482 201.88C57.3853 201.595 57.5995 201.201 57.5908 200.697C57.5861 200.43 57.495 200.21 57.3172 200.039C57.1395 199.867 56.9213 199.732 56.6626 199.634C56.4037 199.525 56.0418 199.408 55.5771 199.282C55.0192 199.128 54.5695 198.981 54.2279 198.843C53.8862 198.705 53.5897 198.5 53.3382 198.226C53.0969 197.943 52.9723 197.575 52.9645 197.123C52.9499 196.28 53.2673 195.611 53.9166 195.117C54.5761 194.612 55.4505 194.35 56.5399 194.331C57.0846 194.322 57.5996 194.38 58.0849 194.505C58.5804 194.62 58.9997 194.792 59.3429 195.023L58.9116 195.94C58.2562 195.489 57.4505 195.272 56.4948 195.288C55.7651 195.301 55.1716 195.46 54.7143 195.766C54.2671 196.062 54.0479 196.461 54.0566 196.965C54.0612 197.232 54.1524 197.452 54.3301 197.623C54.5079 197.795 54.7313 197.935 55.0005 198.043C55.2695 198.142 55.6311 198.248 56.0854 198.364C56.6432 198.519 57.093 198.665 57.4346 198.803C57.7865 198.941 58.0831 199.147 58.3242 199.42C58.5757 199.693 58.7053 200.056 58.7132 200.508C58.7278 201.351 58.4001 202.02 57.7302 202.514C57.0601 202.999 56.1752 203.251 55.0756 203.27ZM74.3519 202.936C73.4886 202.951 72.746 202.815 72.1243 202.527C71.5023 202.23 71.0222 201.811 70.6839 201.272C70.3557 200.723 70.1852 200.083 70.1726 199.354C70.1559 198.387 70.3615 197.5 70.7896 196.691C71.2279 195.881 71.8438 195.238 72.6374 194.762C73.4411 194.275 74.3671 194.023 75.4154 194.004C76.2787 193.989 77.0213 194.131 77.6432 194.428C78.2753 194.716 78.7554 195.134 79.0836 195.683C79.4221 196.233 79.5977 196.872 79.6103 197.602C79.6269 198.558 79.416 199.44 78.9777 200.25C78.5496 201.059 77.9338 201.707 77.1301 202.194C76.3262 202.67 75.4001 202.918 74.3519 202.936ZM74.4432 201.978C75.2654 201.964 75.9866 201.761 76.6069 201.37C77.2273 200.979 77.7014 200.457 78.0293 199.803C78.3572 199.15 78.5146 198.443 78.5015 197.683C78.4869 196.84 78.203 196.177 77.6497 195.693C77.1066 195.198 76.3366 194.96 75.3397 194.977C74.5175 194.991 73.7963 195.194 73.176 195.585C72.5557 195.976 72.0815 196.499 71.7536 197.152C71.4257 197.805 71.2684 198.517 71.2817 199.288C71.2961 200.121 71.5749 200.784 72.1181 201.278C72.6713 201.762 73.4463 201.995 74.4432 201.978ZM92.4384 193.818L93.5329 193.799L92.1108 201.61L96.9667 201.526L96.7977 202.455L90.8319 202.558L92.4384 193.818ZM111.881 202.286C110.853 202.304 110.047 202.066 109.463 201.572C108.888 201.068 108.594 200.364 108.578 199.459C108.573 199.203 108.604 198.878 108.669 198.486L109.57 193.521L110.68 193.502L109.763 198.452C109.707 198.761 109.681 199.039 109.685 199.286C109.697 199.954 109.896 200.46 110.282 200.802C110.679 201.145 111.242 201.31 111.971 201.297C112.804 201.283 113.463 201.04 113.948 200.569C114.433 200.098 114.765 199.368 114.943 198.378L115.859 193.412L116.939 193.393L116.023 198.421C115.574 200.957 114.193 202.246 111.881 202.286ZM131.149 194.072L128.081 194.126L128.25 193.197L135.495 193.072L135.326 194L132.243 194.053L130.821 201.865L129.727 201.884L131.149 194.072ZM146.88 192.875L147.975 192.856L146.384 201.596L145.274 201.615L146.88 192.875ZM163.392 201.394C162.529 201.409 161.786 201.273 161.165 200.985C160.543 200.688 160.063 200.269 159.724 199.73C159.396 199.181 159.226 198.541 159.213 197.812C159.196 196.846 159.402 195.958 159.83 195.149C160.268 194.339 160.884 193.696 161.678 193.22C162.482 192.733 163.408 192.481 164.456 192.462C165.319 192.448 166.062 192.589 166.684 192.886C167.316 193.174 167.796 193.592 168.124 194.141C168.463 194.691 168.638 195.33 168.651 196.06C168.667 197.016 168.456 197.898 168.018 198.708C167.59 199.517 166.974 200.165 166.17 200.652C165.367 201.128 164.441 201.376 163.392 201.394ZM163.484 200.436C164.306 200.422 165.027 200.219 165.647 199.828C166.268 199.437 166.742 198.915 167.07 198.261C167.398 197.608 167.555 196.901 167.542 196.141C167.527 195.298 167.243 194.635 166.69 194.151C166.147 193.657 165.377 193.418 164.38 193.435C163.558 193.449 162.837 193.652 162.216 194.043C161.596 194.434 161.122 194.957 160.794 195.61C160.466 196.263 160.309 196.975 160.322 197.746C160.337 198.579 160.615 199.242 161.158 199.736C161.712 200.22 162.487 200.453 163.484 200.436ZM188.971 192.146L187.38 200.886L186.455 200.902L182.235 194.067L180.982 200.997L179.872 201.016L181.479 192.276L182.388 192.26L186.608 199.095L187.876 192.165L188.971 192.146Z" fill="black"/>
<defs>
<radialGradient id="paint0_radial" cx="0" cy="0" r="1" gradientUnits="userSpaceOnUse" gradientTransform="translate(167.45 87.4213) rotate(122.933) scale(81.6076 82.1018)">
<stop offset="0.151042" stop-color="#FCC90B"/>
<stop offset="0.635417" stop-color="#FA0516"/>
<stop offset="0.770833" stop-color="#3240B8"/>
<stop offset="0.890625" stop-color="#018448"/>
<stop offset="0.942708" stop-color="#0352DC"/>
</radialGradient>
<radialGradient id="paint1_radial" cx="0" cy="0" r="1" gradientUnits="userSpaceOnUse" gradientTransform="translate(167.45 87.4213) rotate(122.933) scale(81.6076 82.1018)">
<stop offset="0.151042" stop-color="#FCC90B"/>
<stop offset="0.635417" stop-color="#FA0516"/>
<stop offset="0.770833" stop-color="#3240B8"/>
<stop offset="0.890625" stop-color="#018448"/>
<stop offset="0.942708" stop-color="#0352DC"/>
</radialGradient>
<radialGradient id="paint2_radial" cx="0" cy="0" r="1" gradientUnits="userSpaceOnUse" gradientTransform="translate(167.45 87.4213) rotate(122.933) scale(81.6076 82.1018)">
<stop offset="0.151042" stop-color="#FCC90B"/>
<stop offset="0.635417" stop-color="#FA0516"/>
<stop offset="0.770833" stop-color="#3240B8"/>
<stop offset="0.890625" stop-color="#018448"/>
<stop offset="0.942708" stop-color="#0352DC"/>
</radialGradient>
</defs>
</svg>
